
<svg version="1.1" id="Capa_1" xmlns="http://www.w3.org/2000/svg" xlink="http://www.w3.org/1999/xlink" x="0px" y="0px"
	 viewBox="0 0 426.667 426.667" style="enable-background:new 0 0 426.667 426.667;" space="preserve">
<g>
	<g>
		<g>
			<path d="M288,192c17.707,0,32-14.293,32-32s-14.293-32-32-32s-32,14.293-32,32S270.293,192,288,192z"/>
			<path d="M138.667,192c17.707,0,32-14.293,32-32s-14.293-32-32-32s-32,14.293-32,32S120.96,192,138.667,192z"/>
			<path d="M213.333,256c-49.707,0-91.84,31.04-108.907,74.667H322.24C305.173,287.04,263.04,256,213.333,256z"/>
			<path d="M213.227,0C95.36,0,0,95.467,0,213.333s95.36,213.333,213.227,213.333s213.44-95.467,213.44-213.333S331.093,0,213.227,0
				z M213.333,384c-94.293,0-170.667-76.373-170.667-170.667S119.04,42.667,213.333,42.667S384,119.04,384,213.333
				S307.627,384,213.333,384z"/>
		</g>
	</g>
</g>
<g>
</g>
<g>
</g>
<g>
</g>
<g>
</g>
<g>
</g>
<g>
</g>
<g>
</g>
<g>
</g>
<g>
</g>
<g>
</g>
<g>
</g>
<g>
</g>
<g>
</g>
<g>
</g>
<g>
</g>
</svg>
