<svg width="17" height="16" viewBox="0 0 17 16" fill="none" xmlns="http://www.w3.org/2000/svg">
<path fill-rule="evenodd" clip-rule="evenodd" d="M11.6317 11.152C11.6317 11.152 13.1962 11.5003 13.5503 11.8544L15.6574 13.9443C16.1199 14.4069 16.1199 15.1777 15.6574 15.6403C15.4176 15.8801 15.1092 16 14.8009 16C14.4925 16 14.1842 15.8801 13.9443 15.6403L11.8544 13.5503C11.4775 13.1563 11.152 11.6317 11.152 11.6317C9.97002 12.7109 8.394 13.3619 6.68094 13.3619C2.99786 13.3619 0 10.364 0 6.68094C0 2.99786 2.99786 0 6.68094 0C10.364 0 13.3619 2.99786 13.3619 6.68094C13.3619 8.394 12.7109 9.97002 11.6317 11.152ZM1.37045 6.68094C1.37045 9.61028 3.75161 11.9914 6.68094 11.9914C9.61028 11.9914 11.9914 9.61028 11.9914 6.68094C11.9914 3.75161 9.61028 1.37045 6.68094 1.37045C3.75161 1.37045 1.37045 3.75161 1.37045 6.68094Z" fill="#545860"/>
</svg>
